<?xml version="1.0" standalone="no"?>
<!DOCTYPE svg PUBLIC "-//W3C//DTD SVG 20010904//EN"
 "http://www.w3.org/TR/2001/REC-SVG-20010904/DTD/svg10.dtd">
<svg version="1.0" xmlns="http://www.w3.org/2000/svg"
 width="500.000000pt" height="500.000000pt" viewBox="0 0 500.000000 500.000000"
 preserveAspectRatio="xMidYMid meet">
<metadata>
Created by potrace 1.14, written by Peter Selinger 2001-2017
</metadata>
<g transform="translate(0.000000,500.000000) scale(0.100000,-0.100000)"
fill="#000000" stroke="none">
<path d="M2360 4509 c-85 -45 -285 -147 -445 -229 -558 -284 -730 -373 -740
-380 -5 -4 -71 -39 -146 -78 -75 -38 -146 -76 -157 -83 -22 -14 -22 -19 -22
-264 0 -238 1 -251 20 -268 29 -24 29 -127 0 -145 -18 -11 -20 -23 -20 -147 0
-124 2 -135 20 -145 14 -7 20 -21 20 -44 0 -25 -5 -35 -20 -39 -17 -4 -20 -14
-20 -66 0 -50 3 -62 20 -71 18 -10 20 -21 20 -104 0 -85 -2 -94 -20 -99 -18
-5 -20 -14 -20 -91 0 -75 2 -87 20 -96 26 -14 26 -40 0 -40 -18 0 -20 -7 -20
-88 0 -75 3 -90 20 -105 26 -22 25 -43 0 -57 -20 -11 -20 -19 -18 -238 l3
-227 105 -51 105 -50 5 -45 c5 -40 10 -47 60 -82 30 -20 314 -167 630 -326
316 -159 607 -305 645 -326 88 -46 109 -44 230 22 50 27 149 80 220 118 72 37
166 87 210 110 45 24 135 71 200 105 66 35 172 90 235 123 174 92 355 184 371
189 8 3 15 20 16 39 1 19 2 39 2 46 1 13 201 113 225 113 8 0 18 6 24 13 13
16 17 833 3 841 -4 3 -7 74 -5 158 1 84 4 418 6 742 l3 589 -30 19 c-16 10
-88 48 -160 84 -71 36 -134 69 -140 74 -14 10 -141 78 -335 178 -91 46 -344
179 -562 293 -219 115 -399 209 -400 209 -2 -1 -73 -37 -158 -81z"/>
</g>
</svg>
